<svg xmlns="http://www.w3.org/2000/svg" width="181.227" height="145.734" viewBox="0 0 181.227 145.734">
  <g id="グループ_72" data-name="グループ 72" transform="translate(-39.971 -110.574)">
    <path id="パス_114" data-name="パス 114" d="M197.5,272.659a8.663,8.663,0,1,0-8.668-8.665A8.667,8.667,0,0,0,197.5,272.659Zm13.216,43.374a2.593,2.593,0,0,0,.523-2.183l-4.9-22.9v-2.734l3.207,6.426a2.6,2.6,0,0,0,3.325,1.242l7.547-3.119a2.6,2.6,0,1,0-1.989-4.812l-5.3,2.189-5.3-10.612a9.2,9.2,0,0,0-4.2-4,12.672,12.672,0,0,0-5.6-1.312h-1.109a12.668,12.668,0,0,0-5.6,1.312,9.178,9.178,0,0,0-4.2,4l-.023.046-9.522,20.084a2.605,2.605,0,1,0,4.708,2.233l6.328-13.348v2.4l-4.9,22.9A2.6,2.6,0,0,0,186.256,317h4v15.649a2.6,2.6,0,1,0,5.209,0V317h4.02v15.649a2.6,2.6,0,1,0,5.209,0V317h4A2.588,2.588,0,0,0,210.714,316.032Zm48.872,13.911-3.518-12.509V287.75H223.557a5.037,5.037,0,0,1,.436.722v0a4.7,4.7,0,0,1-.208,4.108H251.54v22.79H215.121V297.487l-1.355.56a4.916,4.916,0,0,1-1.886.376,4.582,4.582,0,0,1-1.287-.214v1.446l2.931,13.705a4.938,4.938,0,0,1-.99,4.14v0a4.9,4.9,0,0,1-2.41,1.6l-3.1,11.008v2.542c0,.14-.029.269-.04.407h53.473Zm-35.557.693.588-2.3h18l.588,2.3Zm-10.705-4.276,1.761-7h37.063l2.131,7Z" transform="translate(-86.311 -91.809)" fill="#1a1311"/>
    <g id="グループ_71" data-name="グループ 71" transform="translate(43.445 114.058)">
      <line id="線_40" data-name="線 40" x1="88.052" y2="59.999" transform="translate(0 0.314)" fill="#302d2c" stroke="#1a1311" stroke-linecap="round" stroke-miterlimit="10" stroke-width="5"/>
      <line id="線_41" data-name="線 41" x1="84.871" y1="60.004" transform="translate(89.398 0)" fill="#302d2c" stroke="#1a1311" stroke-linecap="round" stroke-miterlimit="10" stroke-width="5"/>
    </g>
    <line id="線_42" data-name="線 42" y2="79.919" transform="translate(69.68 173.889)" fill="#302d2c" stroke="#1a1311" stroke-linecap="round" stroke-miterlimit="10" stroke-width="5"/>
    <line id="線_43" data-name="線 43" y2="77.721" transform="translate(191.816 173.889)" fill="#302d2c" stroke="#1a1311" stroke-linecap="round" stroke-miterlimit="10" stroke-width="5"/>
  </g>
</svg>
