<svg xmlns="http://www.w3.org/2000/svg" width="300" height="113.484" viewBox="0 0 300 113.484">
  <g id="グループ_98" data-name="グループ 98" transform="translate(-2.624 -2.236)">
    <g id="SNS人物アイコン">
      <g id="グループ_91" data-name="グループ 91">
        <path id="パス_145" data-name="パス 145" d="M2.624,71.356V21.744h80v80h-80V80.658c3.321,7.631,7.1,9.594,19.156,8.123,0-3.242-.048-6.524.013-9.8a75.813,75.813,0,0,1,.487-10.751c.336-2.056-.227-2.772-1.846-3.46C13.69,61.9,6.967,64.366,2.624,71.356Zm23.624,7.267c0,2.687-.053,5.375.013,8.061.1,4.129,2.217,6.257,6.383,6.3q9.61.094,19.223,0c4.324-.037,6.451-2.171,6.5-6.494.059-5.063.205-10.139-.077-15.187a11.614,11.614,0,0,0-2.018-5.951c-5.591-7.592-18.766-8.71-25.786-2.393-2.806,2.524-4.671,5.436-4.278,9.465C26.408,74.473,26.243,76.556,26.248,78.623ZM42.415,55.509A12.185,12.185,0,1,0,30.057,43.49,12.2,12.2,0,0,0,42.415,55.509Zm20.433,33.58a78.479,78.479,0,0,0,9.255-.062c6.216-.77,9.671-4.891,9.767-11.144.021-1.341-.062-2.687.018-4.024a8.311,8.311,0,0,0-4.2-7.769,14.167,14.167,0,0,0-12.434-1.681c-2.3.715-4.109,1.547-2.583,4.517a6.518,6.518,0,0,1,.167,2.75C62.853,77.348,62.848,83.021,62.848,89.089ZM24,52.086a9.086,9.086,0,1,0-18.17.131,9.189,9.189,0,0,0,9.126,9A9.23,9.23,0,0,0,24,52.086Zm54.811.264a9.094,9.094,0,1,0-18.182-.388,9.093,9.093,0,0,0,18.182.388Z" fill="none"/>
        <path id="パス_146" data-name="パス 146" d="M2.624,71.356A16.273,16.273,0,0,1,5.664,67.6a16.66,16.66,0,0,1,7.266-3.845,13.286,13.286,0,0,1,7.5,1.011c1.619.688,2.182,1.4,1.846,3.46a75.813,75.813,0,0,0-.487,10.751c-.061,3.279-.013,6.561-.013,9.8C9.725,90.252,5.945,88.289,2.624,80.658Z"/>
        <path id="パス_147" data-name="パス 147" d="M26.246,78.623c0-2.067.162-4.15-.037-6.2-.393-4.029,1.472-6.941,4.278-9.465,7.02-6.317,20.195-5.2,25.786,2.393A11.614,11.614,0,0,1,58.291,71.3c.282,5.048.136,10.124.077,15.187-.05,4.323-2.177,6.457-6.5,6.494q-9.612.083-19.223,0c-4.166-.041-6.283-2.169-6.383-6.3C26.195,84,26.248,81.31,26.246,78.623Z"/>
        <path id="パス_148" data-name="パス 148" d="M42.415,55.509A12.186,12.186,0,1,1,54.574,43.288,12.217,12.217,0,0,1,42.415,55.509Z"/>
        <path id="パス_149" data-name="パス 149" d="M62.848,89.089c0-6.068.005-11.741-.006-17.413a6.518,6.518,0,0,0-.167-2.75c-1.526-2.97.28-3.8,2.583-4.517A14.167,14.167,0,0,1,77.692,66.09a8.311,8.311,0,0,1,4.2,7.769c-.08,1.337,0,2.683-.018,4.024-.1,6.253-3.551,10.374-9.767,11.144A78.479,78.479,0,0,1,62.848,89.089Z"/>
        <path id="パス_150" data-name="パス 150" d="M24,52.086a9.23,9.23,0,0,1-9.044,9.13,9.131,9.131,0,1,1,.029-18.261A9.181,9.181,0,0,1,24,52.086Z"/>
        <path id="パス_151" data-name="パス 151" d="M78.806,52.35a9.094,9.094,0,1,1-9.032-9.39A9.191,9.191,0,0,1,78.806,52.35Z"/>
      </g>
    </g>
    <g id="SNS人物アイコン-3">
      <g id="グループ_92" data-name="グループ 92">
        <path id="パス_152" data-name="パス 152" d="M222.624,71.356V21.744h80v80h-80V80.658c3.321,7.631,7.1,9.594,19.156,8.123,0-3.242-.048-6.524.013-9.8a75.813,75.813,0,0,1,.487-10.751c.336-2.056-.227-2.772-1.846-3.46C233.69,61.9,226.967,64.366,222.624,71.356Zm23.624,7.267c0,2.687-.053,5.375.013,8.061.1,4.129,2.217,6.257,6.383,6.3q9.61.094,19.223,0c4.324-.037,6.451-2.171,6.5-6.494.059-5.063.2-10.139-.077-15.187a11.614,11.614,0,0,0-2.018-5.951c-5.591-7.592-18.766-8.71-25.786-2.393-2.806,2.524-4.671,5.436-4.278,9.465C246.408,74.473,246.243,76.556,246.248,78.623Zm16.167-23.114A12.185,12.185,0,1,0,250.057,43.49,12.2,12.2,0,0,0,262.415,55.509Zm20.433,33.58a78.48,78.48,0,0,0,9.255-.062c6.216-.77,9.671-4.891,9.767-11.144.021-1.341-.062-2.687.018-4.024a8.311,8.311,0,0,0-4.2-7.769,14.167,14.167,0,0,0-12.434-1.681c-2.3.715-4.109,1.547-2.583,4.517a6.518,6.518,0,0,1,.167,2.75C282.853,77.348,282.848,83.021,282.848,89.089Zm-38.853-37a9.085,9.085,0,1,0-9.044,9.13A9.181,9.181,0,0,0,243.995,52.086Zm54.811.264a9.094,9.094,0,1,0-18.182-.388,9.093,9.093,0,0,0,18.182.388Z" fill="none"/>
        <path id="パス_153" data-name="パス 153" d="M222.624,71.356c4.343-6.99,11.066-9.457,17.81-6.589,1.619.688,2.182,1.4,1.846,3.46a75.813,75.813,0,0,0-.487,10.751c-.061,3.279-.013,6.561-.013,9.8-12.055,1.471-15.835-.492-19.156-8.123Z"/>
        <path id="パス_154" data-name="パス 154" d="M246.246,78.623c0-2.067.162-4.15-.037-6.2-.393-4.029,1.472-6.941,4.278-9.465,7.02-6.317,20.2-5.2,25.786,2.393a11.614,11.614,0,0,1,2.018,5.951c.282,5.048.136,10.124.077,15.187-.05,4.323-2.177,6.457-6.5,6.494q-9.612.083-19.223,0c-4.166-.041-6.283-2.169-6.383-6.3C246.2,84,246.248,81.31,246.246,78.623Z"/>
        <path id="パス_155" data-name="パス 155" d="M262.415,55.509a12.186,12.186,0,1,1,12.159-12.221A12.217,12.217,0,0,1,262.415,55.509Z"/>
        <path id="パス_156" data-name="パス 156" d="M282.848,89.089c0-6.068.005-11.741-.006-17.413a6.518,6.518,0,0,0-.167-2.75c-1.526-2.97.28-3.8,2.583-4.517a14.167,14.167,0,0,1,12.434,1.681,8.311,8.311,0,0,1,4.2,7.769c-.08,1.337,0,2.683-.018,4.024-.1,6.253-3.551,10.374-9.767,11.144A78.48,78.48,0,0,1,282.848,89.089Z"/>
        <path id="パス_157" data-name="パス 157" d="M243.995,52.086a9.085,9.085,0,0,1-18.17.131,9.086,9.086,0,1,1,18.17-.131Z"/>
        <path id="パス_158" data-name="パス 158" d="M298.806,52.35a9.094,9.094,0,1,1-9.032-9.39A9.191,9.191,0,0,1,298.806,52.35Z"/>
      </g>
    </g>
    <g id="コンポーネント_4_1" data-name="コンポーネント 4 1">
      <path id="パス_159" data-name="パス 159" d="M125.124,68.744h-32a1.5,1.5,0,0,1,0-3h32a1.5,1.5,0,0,1,0,3Z" fill="#707070"/>
      <path id="パス_160" data-name="パス 160" d="M127.123,68.744a1.488,1.488,0,0,1-.81-.239l-14-9a1.5,1.5,0,1,1,1.622-2.523l14,9a1.5,1.5,0,0,1-.812,2.762Z" fill="#707070"/>
      <path id="パス_161" data-name="パス 161" d="M113.125,77.744a1.5,1.5,0,0,1-.812-2.762l14-9a1.5,1.5,0,1,1,1.622,2.523l-14,9A1.488,1.488,0,0,1,113.125,77.744Z" fill="#707070"/>
    </g>
    <g id="_19万" data-name=" 19万" style="isolation: isolate">
      <g id="グループ_93" data-name="グループ 93" style="isolation: isolate">
        <path id="パス_162" data-name="パス 162" d="M32.968,14.744H26.7V13.666h2.453V5.572H26.7V4.619a3.953,3.953,0,0,0,2.055-.411,1.6,1.6,0,0,0,.695-1.277h1.11V13.666h2.406Z"/>
        <path id="パス_163" data-name="パス 163" d="M36.46,14.791V13.408h.094a3.526,3.526,0,0,0,1.531.312q3.609,0,3.969-4.179a5.679,5.679,0,0,1-2.875.937,3.91,3.91,0,0,1-2.817-.988,3.567,3.567,0,0,1-1.035-2.707,3.925,3.925,0,0,1,4.031-4.047A3.793,3.793,0,0,1,42.44,4.083a6.24,6.24,0,0,1,1.122,4.059,7.708,7.708,0,0,1-1.477,5.039,5.176,5.176,0,0,1-4.234,1.789A4.715,4.715,0,0,1,36.46,14.791Zm5.594-6.235.023-.695a5.127,5.127,0,0,0-.7-2.926,2.315,2.315,0,0,0-2.031-1.019,2.371,2.371,0,0,0-1.844.746,2.942,2.942,0,0,0-.68,2.058,2.7,2.7,0,0,0,.633,1.848,2.66,2.66,0,0,0,2.094.723A5.155,5.155,0,0,0,42.054,8.556Z"/>
        <path id="パス_164" data-name="パス 164" d="M45.6,15.533l-.657-.852a10.722,10.722,0,0,0,2.571-2.445A8.534,8.534,0,0,0,48.94,9.244a16.026,16.026,0,0,0,.411-3.9V3.517H45.3V2.486H59.733V3.517H50.608V5.556q0,.586-.031,1.125h7.57V8.806a24.779,24.779,0,0,1-.222,3.379,5.5,5.5,0,0,1-.613,2.172,2.057,2.057,0,0,1-.954.773,3.035,3.035,0,0,1-.976.227q-.416.012-1.039.012-1,0-1.485-.016l-.179-1.133c.3.011.6.016.883.016a9.875,9.875,0,0,0,1.687-.09,1.482,1.482,0,0,0,.762-.457,3.239,3.239,0,0,0,.6-1.4,12.657,12.657,0,0,0,.25-2.855V7.681H50.491A10.155,10.155,0,0,1,45.6,15.533Z"/>
      </g>
    </g>
    <g id="_79万" data-name=" 79万" style="isolation: isolate">
      <g id="グループ_94" data-name="グループ 94" style="isolation: isolate">
        <path id="パス_165" data-name="パス 165" d="M210.585,5.064l-5.344,9.68h-2.812l5.593-9.86h-6.335V2.97h8.9Z" fill="#fc2f2f"/>
        <path id="パス_166" data-name="パス 166" d="M213.155,14.806V12.8h.242a4.309,4.309,0,0,0,1.8.344q3.212,0,3.571-3.359a5.416,5.416,0,0,1-2.782.929,3.941,3.941,0,0,1-2.789-.984,3.614,3.614,0,0,1-1.062-2.789A3.941,3.941,0,0,1,213.4,3.912a4.652,4.652,0,0,1,3.293-1.176,4.383,4.383,0,0,1,3.477,1.387,5.99,5.99,0,0,1,1.219,4.066,7.206,7.206,0,0,1-1.614,5.039,6.012,6.012,0,0,1-4.675,1.766A7.9,7.9,0,0,1,213.155,14.806Zm5.625-6.281c0-.052.005-.169.016-.352s.008-.309.008-.4q0-3.282-2.125-3.281a1.773,1.773,0,0,0-1.4.613,2.5,2.5,0,0,0-.535,1.7q0,2.15,2.266,2.149A4.237,4.237,0,0,0,218.78,8.525Z" fill="#fc2f2f"/>
        <path id="パス_167" data-name="パス 167" d="M229.147,4.1q0,1.352-.015,2.07h7.211q0,2.829-.125,4.645a12.592,12.592,0,0,1-.391,2.664,2.432,2.432,0,0,1-1,1.336,3.323,3.323,0,0,1-1.875.488h-2.461l-.32-2.047h2.4a1.2,1.2,0,0,0,1.2-.933,18.153,18.153,0,0,0,.313-4.379h-5.031a9.9,9.9,0,0,1-1.653,4.488,10.027,10.027,0,0,1-3.6,3.051L222.647,13.9a8.721,8.721,0,0,0,3.125-2.922A8.872,8.872,0,0,0,226.9,6.2c0-.152,0-.3-.007-.461V4.1h-3.743V2.236h14.336V4.1Z" fill="#fc2f2f"/>
      </g>
    </g>
    <g id="_2020年" data-name=" 2020年" style="isolation: isolate">
      <g id="グループ_95" data-name="グループ 95" style="isolation: isolate">
        <path id="パス_168" data-name="パス 168" d="M27.765,114.744H19.89V113.22q1.25-1.079,2.808-2.508a16.327,16.327,0,0,0,2.317-2.515,3.777,3.777,0,0,0,.757-2.172,1.859,1.859,0,0,0-.636-1.5,2.6,2.6,0,0,0-1.731-.539A5.684,5.684,0,0,0,20.257,105h-.078v-1.523a7.518,7.518,0,0,1,3.265-.75,4.219,4.219,0,0,1,2.805.863,2.92,2.92,0,0,1,1.023,2.356,4.469,4.469,0,0,1-.261,1.523,4.9,4.9,0,0,1-.817,1.414,18.6,18.6,0,0,1-1.328,1.461q-.772.774-3.554,3.141h6.453Z" fill="#070707"/>
        <path id="パス_169" data-name="パス 169" d="M33.663,114.986a3.394,3.394,0,0,1-3.055-1.485,8.6,8.6,0,0,1-.976-4.632,8.618,8.618,0,0,1,.98-4.641,3.392,3.392,0,0,1,3.051-1.492,3.383,3.383,0,0,1,3.039,1.5,8.558,8.558,0,0,1,.985,4.621,8.648,8.648,0,0,1-.977,4.645A3.385,3.385,0,0,1,33.663,114.986Zm0-11.055a2.059,2.059,0,0,0-1.937,1.059,8.624,8.624,0,0,0-.6,3.879,8.574,8.574,0,0,0,.6,3.859,2.294,2.294,0,0,0,3.871,0,8.7,8.7,0,0,0,.6-3.875,8.723,8.723,0,0,0-.593-3.84A2.041,2.041,0,0,0,33.663,103.931Z" fill="#070707"/>
        <path id="パス_170" data-name="パス 170" d="M47.64,114.744H39.765V113.22q1.25-1.079,2.808-2.508A16.327,16.327,0,0,0,44.89,108.2a3.777,3.777,0,0,0,.757-2.172,1.859,1.859,0,0,0-.636-1.5,2.6,2.6,0,0,0-1.731-.539A5.684,5.684,0,0,0,40.132,105h-.078v-1.523a7.518,7.518,0,0,1,3.265-.75,4.219,4.219,0,0,1,2.805.863,2.92,2.92,0,0,1,1.023,2.356,4.469,4.469,0,0,1-.261,1.523,4.9,4.9,0,0,1-.817,1.414,18.6,18.6,0,0,1-1.328,1.461q-.772.774-3.554,3.141H47.64Z" fill="#070707"/>
        <path id="パス_171" data-name="パス 171" d="M53.538,114.986a3.394,3.394,0,0,1-3.055-1.485,8.6,8.6,0,0,1-.976-4.632,8.618,8.618,0,0,1,.98-4.641,3.85,3.85,0,0,1,6.09,0,8.558,8.558,0,0,1,.985,4.621,8.648,8.648,0,0,1-.977,4.645A3.385,3.385,0,0,1,53.538,114.986Zm0-11.055A2.059,2.059,0,0,0,51.6,104.99a8.624,8.624,0,0,0-.6,3.879,8.574,8.574,0,0,0,.6,3.859,2.294,2.294,0,0,0,3.871,0,8.7,8.7,0,0,0,.6-3.875,8.723,8.723,0,0,0-.593-3.84A2.041,2.041,0,0,0,53.538,103.931Z" fill="#070707"/>
        <path id="パス_172" data-name="パス 172" d="M59.272,112.126v-.992H61.4v-4.179h5.219v-2.789H62.991a14.6,14.6,0,0,1-3.344,3.734l-.734-.7a13.537,13.537,0,0,0,4.078-5.758l1.227.227a14.109,14.109,0,0,1-.656,1.531h9.859v.969H67.843v2.789H72.8v.945H67.843v3.234h5.969v.992H67.843v3.594H66.616v-3.594Zm3.3-.992h4.047V107.9H62.569Z" fill="#070707"/>
      </g>
    </g>
    <g id="_2030年" data-name=" 2030年" style="isolation: isolate">
      <g id="グループ_96" data-name="グループ 96" style="isolation: isolate">
        <path id="パス_173" data-name="パス 173" d="M203.765,114.744H195.89V113.22q1.25-1.079,2.808-2.508a16.276,16.276,0,0,0,2.317-2.515,3.777,3.777,0,0,0,.757-2.172,1.856,1.856,0,0,0-.636-1.5,2.6,2.6,0,0,0-1.731-.539A5.687,5.687,0,0,0,196.257,105h-.078v-1.523a7.518,7.518,0,0,1,3.265-.75,4.219,4.219,0,0,1,2.8.863,2.917,2.917,0,0,1,1.023,2.356,4.445,4.445,0,0,1-.261,1.523,4.9,4.9,0,0,1-.817,1.414,18.6,18.6,0,0,1-1.328,1.461q-.772.774-3.554,3.141h6.453Z" fill="#070707"/>
        <path id="パス_174" data-name="パス 174" d="M209.663,114.986a3.4,3.4,0,0,1-3.055-1.485,8.6,8.6,0,0,1-.976-4.632,8.627,8.627,0,0,1,.98-4.641,3.85,3.85,0,0,1,6.09,0,8.558,8.558,0,0,1,.985,4.621,8.648,8.648,0,0,1-.977,4.645A3.385,3.385,0,0,1,209.663,114.986Zm0-11.055a2.06,2.06,0,0,0-1.937,1.059,8.624,8.624,0,0,0-.6,3.879,8.575,8.575,0,0,0,.6,3.859,2.294,2.294,0,0,0,3.871,0,8.7,8.7,0,0,0,.6-3.875,8.723,8.723,0,0,0-.593-3.84A2.041,2.041,0,0,0,209.663,103.931Z" fill="#070707"/>
        <path id="パス_175" data-name="パス 175" d="M215.812,114.251v-1.57h.125a5.877,5.877,0,0,0,3.281,1.047,2.881,2.881,0,0,0,2-.68,2.413,2.413,0,0,0,.754-1.89,2.007,2.007,0,0,0-.657-1.657,3.383,3.383,0,0,0-2.125-.531h-.687v-1.2h.531a3.243,3.243,0,0,0,1.984-.539,1.782,1.782,0,0,0,.719-1.516,1.478,1.478,0,0,0-.629-1.277,2.926,2.926,0,0,0-1.73-.449,5.7,5.7,0,0,0-3.149,1.023h-.086V103.47a7.606,7.606,0,0,1,3.274-.742,4.549,4.549,0,0,1,2.816.762,2.456,2.456,0,0,1,1,2.058,2.5,2.5,0,0,1-.664,1.7,2.947,2.947,0,0,1-1.664.954v.125a2.754,2.754,0,0,1,2.571,2.961,3.383,3.383,0,0,1-1.18,2.656,4.432,4.432,0,0,1-3.039,1.039A8.471,8.471,0,0,1,215.812,114.251Z" fill="#070707"/>
        <path id="パス_176" data-name="パス 176" d="M229.538,114.986a3.4,3.4,0,0,1-3.055-1.485,8.6,8.6,0,0,1-.976-4.632,8.627,8.627,0,0,1,.98-4.641,3.85,3.85,0,0,1,6.09,0,8.558,8.558,0,0,1,.985,4.621,8.648,8.648,0,0,1-.977,4.645A3.385,3.385,0,0,1,229.538,114.986Zm0-11.055a2.06,2.06,0,0,0-1.937,1.059,8.624,8.624,0,0,0-.6,3.879,8.575,8.575,0,0,0,.6,3.859,2.294,2.294,0,0,0,3.871,0,8.7,8.7,0,0,0,.6-3.875,8.723,8.723,0,0,0-.593-3.84A2.041,2.041,0,0,0,229.538,103.931Z" fill="#070707"/>
        <path id="パス_177" data-name="パス 177" d="M235.272,112.126v-.992H237.4v-4.179h5.219v-2.789h-3.625a14.579,14.579,0,0,1-3.344,3.734l-.734-.7a13.537,13.537,0,0,0,4.078-5.758l1.227.227a14.107,14.107,0,0,1-.656,1.531h9.859v.969h-5.578v2.789H248.8v.945h-4.961v3.234h5.969v.992h-5.969v3.594h-1.227v-3.594Zm3.3-.992h4.047V107.9h-4.047Z" fill="#070707"/>
      </g>
    </g>
    <g id="SNS人物アイコン-3-2" data-name="SNS人物アイコン-3">
      <g id="グループ_97" data-name="グループ 97">
        <path id="パス_178" data-name="パス 178" d="M140.11,71.356V21.744h80v80h-80V80.658c3.32,7.631,7.1,9.594,19.156,8.123,0-3.242-.049-6.524.013-9.8a75.811,75.811,0,0,1,.486-10.751c.336-2.056-.227-2.772-1.845-3.46C151.175,61.9,144.453,64.366,140.11,71.356Zm23.624,7.267c0,2.687-.053,5.375.012,8.061.1,4.129,2.218,6.257,6.383,6.3q9.61.094,19.223,0c4.324-.037,6.451-2.171,6.5-6.494.059-5.063.206-10.139-.077-15.187a11.6,11.6,0,0,0-2.017-5.951c-5.592-7.592-18.767-8.71-25.787-2.393-2.8,2.524-4.671,5.436-4.278,9.465C163.894,74.473,163.729,76.556,163.734,78.623ZM179.9,55.509A12.185,12.185,0,1,0,167.543,43.49,12.2,12.2,0,0,0,179.9,55.509Zm20.432,33.58a78.476,78.476,0,0,0,9.255-.062c6.217-.77,9.671-4.891,9.768-11.144.02-1.341-.063-2.687.017-4.024a8.311,8.311,0,0,0-4.2-7.769,14.168,14.168,0,0,0-12.434-1.681c-2.3.715-4.11,1.547-2.584,4.517a6.5,6.5,0,0,1,.168,2.75C200.339,77.348,200.333,83.021,200.333,89.089Zm-38.853-37a9.085,9.085,0,1,0-9.044,9.13A9.18,9.18,0,0,0,161.48,52.086Zm54.811.264a9.093,9.093,0,1,0-18.181-.388,9.093,9.093,0,0,0,18.181.388Z" fill="none"/>
        <path id="パス_179" data-name="パス 179" d="M140.11,71.356c4.343-6.99,11.065-9.457,17.81-6.589,1.618.688,2.181,1.4,1.845,3.46a75.811,75.811,0,0,0-.486,10.751c-.062,3.279-.013,6.561-.013,9.8-12.055,1.471-15.836-.492-19.156-8.123Z"/>
        <path id="パス_180" data-name="パス 180" d="M163.731,78.623c0-2.067.163-4.15-.037-6.2-.393-4.029,1.473-6.941,4.278-9.465,7.02-6.317,20.2-5.2,25.787,2.393a11.6,11.6,0,0,1,2.017,5.951c.283,5.048.136,10.124.077,15.187-.05,4.323-2.177,6.457-6.5,6.494q-9.61.083-19.223,0c-4.165-.041-6.283-2.169-6.383-6.3C163.681,84,163.734,81.31,163.731,78.623Z"/>
        <path id="パス_181" data-name="パス 181" d="M179.9,55.509A12.186,12.186,0,1,1,192.06,43.288,12.217,12.217,0,0,1,179.9,55.509Z"/>
        <path id="パス_182" data-name="パス 182" d="M200.333,89.089c0-6.068.006-11.741,0-17.413a6.5,6.5,0,0,0-.168-2.75c-1.526-2.97.28-3.8,2.584-4.517a14.168,14.168,0,0,1,12.434,1.681,8.311,8.311,0,0,1,4.2,7.769c-.08,1.337,0,2.683-.017,4.024-.1,6.253-3.551,10.374-9.768,11.144A78.476,78.476,0,0,1,200.333,89.089Z"/>
        <path id="パス_183" data-name="パス 183" d="M161.48,52.086a9.085,9.085,0,0,1-18.17.131,9.086,9.086,0,1,1,18.17-.131Z"/>
        <path id="パス_184" data-name="パス 184" d="M216.291,52.35a9.093,9.093,0,1,1-9.031-9.39A9.19,9.19,0,0,1,216.291,52.35Z"/>
      </g>
    </g>
  </g>
</svg>
