<svg id="グループ_70" data-name="グループ 70" xmlns="http://www.w3.org/2000/svg" width="145.622" height="158.91" viewBox="0 0 145.622 158.91">
  <rect id="長方形_89" data-name="長方形 89" width="18.584" height="32.164" transform="translate(5.21 126.746)" fill="#302d2c"/>
  <rect id="長方形_90" data-name="長方形 90" width="18.586" height="52.623" transform="translate(35.408 106.287)" fill="#302d2c"/>
  <rect id="長方形_91" data-name="長方形 91" width="18.584" height="48.081" transform="translate(65.608 110.829)" fill="#302d2c"/>
  <rect id="長方形_92" data-name="長方形 92" width="18.584" height="67.928" transform="translate(95.808 90.982)" fill="#302d2c"/>
  <rect id="長方形_93" data-name="長方形 93" width="18.585" height="94.05" transform="translate(126.007 64.86)" fill="#302d2c"/>
  <path id="パス_104" data-name="パス 104" d="M230.835,143.018l-67.353,49.465-16.462-14.8L88.9,219.754l3.688,5.326L146.58,186l16.49,14.822,71.452-52.476Z" transform="translate(-88.9 -103.139)" fill="#302d2c"/>
  <g id="グループ_68" data-name="グループ 68" transform="translate(77.27)">
    <path id="パス_105" data-name="パス 105" d="M199.345,108.113a5.352,5.352,0,1,0,6.174-4.379A5.351,5.351,0,0,0,199.345,108.113Z" transform="translate(-166.17 -103.658)" fill="#302d2c"/>
    <path id="パス_106" data-name="パス 106" d="M166.265,145.959a2.446,2.446,0,0,1,3.021-1.68l11.246,2.4s1.39-3.418,3.2-7.87a11.757,11.757,0,0,0,1.076,2.9l3.249,6.838L185.88,152.4c-.926,1.59-2.776,1.907-4.556,1.2l-.011-.007-13.37-4.617A2.443,2.443,0,0,1,166.265,145.959Z" transform="translate(-166.17 -103.658)" fill="#302d2c"/>
    <path id="パス_107" data-name="パス 107" d="M205,130.365l-3.506-3.4,2.054-3.64.022-.049a9.049,9.049,0,0,0,.566-1.716l3.242,3.747,7.257-4.39a2.082,2.082,0,1,1,2.31,3.465l-8.5,6.226A2.674,2.674,0,0,1,205,130.365Z" transform="translate(-166.17 -103.658)" fill="#302d2c"/>
    <path id="パス_108" data-name="パス 108" d="M176.685,124a2.08,2.08,0,0,0,2.39,1.72l11.616-2.458s-3.593,7.267-4.74,10.089c-1.751,3.4-1.592,5.042-.173,7.875l11.371,23.934a2.443,2.443,0,0,0,4.592-1.672L194.2,137.666l7.426-13.148-1.932.861-.3-10.3c-1.935-.635-3.657-.11-5.716.483L178.4,121.605A2.138,2.138,0,0,0,176.685,124Zm20.73,3.489a.714.714,0,1,1,.584.825A.714.714,0,0,1,197.415,127.485Zm-1.964,3.437a.714.714,0,1,1,.584.824A.713.713,0,0,1,195.451,130.922Z" transform="translate(-166.17 -103.658)" fill="#302d2c"/>
    <path id="パス_109" data-name="パス 109" d="M201.982,118.41l-1.77,3.378.319,2.444,1.284-.517,1.893-4.093Z" transform="translate(-166.17 -103.658)" fill="#302d2c"/>
    <path id="パス_110" data-name="パス 110" d="M203.876,119.169l-1.758-1.149.413-.941,1.688,1.16Z" transform="translate(-166.17 -103.658)" fill="#302d2c"/>
  </g>
  <g id="グループ_69" data-name="グループ 69" transform="translate(69.123 18.128)">
    <path id="パス_111" data-name="パス 111" d="M175.948,130.292l-1.166-1,1.252-1.466a.988.988,0,0,0-.11-1.4l-3.7-3.161a.994.994,0,0,0-1.4.11l-1.252,1.465-1.165-1-7.884,9.228,7.54,6.44Zm-2.089-1.784-3.361-2.871,1.107-1.3,3.361,2.871Z" transform="translate(-158.023 -121.786)" fill="#302d2c"/>
    <path id="パス_112" data-name="パス 112" d="M176.871,131.08l1.154.986a1.213,1.213,0,0,1,.135,1.711l-6.306,7.383a1.214,1.214,0,0,1-1.712.135l-1.154-.986Z" transform="translate(-158.023 -121.786)" fill="#302d2c"/>
    <path id="パス_113" data-name="パス 113" d="M166.331,122.077l1.154.986-7.883,9.228-1.154-.985a1.217,1.217,0,0,1-.135-1.712l6.307-7.383A1.214,1.214,0,0,1,166.331,122.077Z" transform="translate(-158.023 -121.786)" fill="#302d2c"/>
  </g>
</svg>
