<svg xmlns="http://www.w3.org/2000/svg" xmlns:xlink="http://www.w3.org/1999/xlink" width="88" height="38" viewBox="0 0 88 38"><defs><clipPath id="a"><rect width="38" height="19" transform="translate(0.438 0)" fill="#fff"/></clipPath></defs><g transform="translate(-24.688 -44)"><g transform="translate(74.25 44)" clip-path="url(#a)"><g transform="translate(2.425 2.994)"><g transform="translate(0 0)"><ellipse cx="2.281" cy="2.332" rx="2.281" ry="2.332" transform="translate(0 9.266)" fill="none" stroke="#09f" stroke-miterlimit="10" stroke-width="1.966"/><ellipse cx="2.281" cy="2.332" rx="2.281" ry="2.332" transform="translate(9.914 1.492)" fill="none" stroke="#09f" stroke-miterlimit="10" stroke-width="1.966"/><ellipse cx="2.281" cy="2.332" rx="2.281" ry="2.332" transform="translate(19.402 7.742)" fill="none" stroke="#09f" stroke-miterlimit="10" stroke-width="1.966"/><ellipse cx="2.281" cy="2.332" rx="2.281" ry="2.332" transform="translate(29.011)" fill="none" stroke="#09f" stroke-miterlimit="10" stroke-width="1.966"/><line x1="6.052" y2="5.13" transform="translate(4.014 4.944)" fill="none" stroke="#09f" stroke-miterlimit="10" stroke-width="1.966"/><line x2="5.291" y2="4.166" transform="translate(14.262 5.099)" fill="none" stroke="#09f" stroke-miterlimit="10" stroke-width="1.966"/><line x1="5.96" y2="5.099" transform="translate(23.781 4.042)" fill="none" stroke="#09f" stroke-miterlimit="10" stroke-width="1.966"/><ellipse cx="2.281" cy="2.332" rx="2.281" ry="2.332" transform="translate(0 9.266)" fill="none" stroke="#09f" stroke-width="0.983"/><ellipse cx="2.281" cy="2.332" rx="2.281" ry="2.332" transform="translate(9.914 1.492)" fill="none" stroke="#09f" stroke-width="0.983"/><ellipse cx="2.281" cy="2.332" rx="2.281" ry="2.332" transform="translate(19.402 7.742)" fill="none" stroke="#09f" stroke-width="0.983"/><ellipse cx="2.281" cy="2.332" rx="2.281" ry="2.332" transform="translate(29.011)" fill="none" stroke="#09f" stroke-width="0.983"/><line x1="6.052" y2="5.13" transform="translate(4.014 4.944)" fill="none" stroke="#09f" stroke-width="0.983"/><line x2="5.291" y2="4.166" transform="translate(14.262 5.099)" fill="none" stroke="#09f" stroke-width="0.983"/><line x1="5.96" y2="5.099" transform="translate(23.781 4.042)" fill="none" stroke="#09f" stroke-width="0.983"/><ellipse cx="2.281" cy="2.332" rx="2.281" ry="2.332" transform="translate(0 9.266)" fill="none" stroke="#09f" stroke-miterlimit="10" stroke-width="0.983"/><ellipse cx="2.281" cy="2.332" rx="2.281" ry="2.332" transform="translate(9.914 1.492)" fill="none" stroke="#09f" stroke-miterlimit="10" stroke-width="0.983"/><ellipse cx="2.281" cy="2.332" rx="2.281" ry="2.332" transform="translate(19.402 7.742)" fill="none" stroke="#09f" stroke-miterlimit="10" stroke-width="0.983"/><ellipse cx="2.281" cy="2.332" rx="2.281" ry="2.332" transform="translate(29.011)" fill="none" stroke="#09f" stroke-miterlimit="10" stroke-width="0.983"/><line x1="6.052" y2="5.13" transform="translate(4.014 4.944)" fill="none" stroke="#09f" stroke-miterlimit="10" stroke-width="0.983"/><line x2="5.291" y2="4.166" transform="translate(14.262 5.099)" fill="none" stroke="#09f" stroke-miterlimit="10" stroke-width="0.983"/><line x1="5.96" y2="5.099" transform="translate(23.781 4.042)" fill="none" stroke="#09f" stroke-miterlimit="10" stroke-width="0.983"/></g></g></g><g transform="translate(27.562 45.281)"><text transform="translate(0.125 23.719)" fill="#1692ff" font-size="20" font-family="Helvetica"><tspan x="0" y="0">ABC</tspan></text></g><text transform="translate(24.688 81)" fill="#1692ff" font-size="8" font-family="HiraginoSans-W3, Hiragino Sans" letter-spacing="-0.15em"><tspan x="0" y="0">プログラミングスクール</tspan></text></g></svg>