<svg xmlns="http://www.w3.org/2000/svg" xmlns:xlink="http://www.w3.org/1999/xlink" width="80" height="100" viewBox="0 0 80 100"><defs><clipPath id="a"><rect width="80" height="100" transform="translate(252 6198)" fill="#fff" stroke="#707070" stroke-width="1"/></clipPath></defs><g transform="translate(-252 -6198)" clip-path="url(#a)"><g transform="translate(241.557 6196.906)"><path d="M44.122,1.125h8.721a.694.694,0,0,0,.595.391c14.073,1.992,19.663,13.4,19.7,22.736a83.037,83.037,0,0,0,.912,10.86c1.11,8.673,3.449,17.072,5.114,25.627.793,4.024,1.7,8.126-.159,12.071-.595,1.289-.2,1.641.793,2.188,4.2,2.422,7.1,5.938,7.73,10.743.872,6.758.832,7.5-5.55,10.157-5.193,2.188-10.7,3.125-16.254,4.024-2.7.43-5.471.313-8.087,1.133H39.8c-.277-.547-.793-.352-1.229-.391a107.664,107.664,0,0,1-13.28-1.953,47.609,47.609,0,0,1-12.329-4.1A5.132,5.132,0,0,1,9.91,89.8c-.04-6.524,2.418-11.642,8.246-14.923,1.308-.7,1.625-1.367.991-2.735a10.957,10.957,0,0,1-.753-4.375c-.2-4.766.634-9.454,1.387-14.142,1.546-9.493,3.052-19.025,3.251-28.635A24.843,24.843,0,0,1,39.127,2.688C40.792,2.1,42.457,1.633,44.122,1.125ZM60.138,21.752a13.662,13.662,0,0,1-5.074,7.969A33.957,33.957,0,0,1,39.92,36.558c-3.766.781-7.532,2.031-11.5.977-.555-.156-.634.2-.714.625-.357,2.5,2.418,7.852,4.836,9.063a1.872,1.872,0,0,1,1.11,1.445A19.288,19.288,0,0,0,38.81,58.4a2.805,2.805,0,0,1,.991,2.227c-.2,2.5.4,5.079-.476,7.54-.238.625.2,1.133.436,1.641,2.616,5.118,5.55,10.04,8.642,14.884.753,1.172,1.07,1.133,1.7-.078,2.577-4.922,5.193-9.766,7.81-14.65.278-.508.674-1.016.436-1.641-.951-2.383-.277-4.883-.515-7.344a3.272,3.272,0,0,1,.991-2.617A18.576,18.576,0,0,0,63.9,48.825a2.252,2.252,0,0,1,1.586-1.758c2.339-1.055,5.074-7.579,4.321-9.923-.317-.9-.872-1.484-1.625-.469-.872,1.172-1.506.625-2.18-.078a7.863,7.863,0,0,1-1.943-3.125c-.793-2.539-1.467-5.118-2.26-7.657C61.446,24.448,61.367,22.885,60.138,21.752ZM32.308,87.187a2.57,2.57,0,0,1-.159-1.758c.317-3.672.634-7.383.872-11.056.04-.547.476-1.641-.951-1.211-3.568,1.133-7.294,1.8-10.7,3.4-4.281,1.992-7.374,5-8.127,9.805-.753,4.766-.595,5.235,4.044,6.915,10.624,3.867,21.685,4.844,32.864,4.766,1.031,0,1.11-.508,1.15-1.328.238-3.2-.2-6.094-2.3-8.751a68.555,68.555,0,0,1-4.836-7.579c-.714-1.211-1.269-1.289-2.379-.43C38.731,82.343,35.559,84.687,32.308,87.187Zm33.657.078c-.714-.469-1.031-.664-1.348-.859-2.894-2.188-5.748-4.336-8.6-6.563-.872-.664-1.348-.781-1.9.313-1.031,2.11-2.18,4.141-3.29,6.211-.277.547-.634,1.094-.159,1.641,2.3,2.461,2.18,5.469,2.022,8.438-.079,1.211.436,1.563,1.625,1.524a112.872,112.872,0,0,0,12.606-1.25A62.931,62.931,0,0,0,82.5,92.5a3.587,3.587,0,0,0,2.418-4.1c-.436-5.7-3.409-9.532-8.6-11.876-3.211-1.445-6.66-2.07-9.95-3.2-1.269-.43-1.586-.313-1.467,1.094C65.291,78.553,65.569,82.694,65.965,87.265ZM33.577,84.491c2.934-2.227,5.391-4.1,7.849-5.977.753-.547,1.031-1.055.515-1.953-1.11-1.914-2.1-3.907-3.171-5.821-.159-.313-.476-.977-.753-.7-1.07,1.055-3.211,1.094-3.449,2.891C34.132,76.6,33.934,80.272,33.577,84.491Zm30.8,0c-.278-3.242-.714-5.977-.674-8.712.04-2.539-.753-4.3-3.171-5.352-.793-.352-1.031-.508-1.546.781a29.886,29.886,0,0,1-2.854,5.313c-.515.742-.595,1.211,0,1.68C58.711,80.194,61.367,82.226,64.379,84.491Z" transform="translate(1.158 0.004)" fill="#3cabd2"/><path d="M47.99,101.055c2.321-.859,4.782-.7,7.173-1.133,4.923-.859,9.81-1.836,14.417-4.023,5.661-2.656,5.7-3.4,4.923-10.156A14.347,14.347,0,0,0,67.646,75c-.879-.586-1.231-.937-.7-2.187,1.653-3.945.809-8.047.141-12.07-1.477-8.555-3.551-16.953-4.536-25.625a101.783,101.783,0,0,1-.809-10.859C61.7,14.922,56.746,3.516,44.263,1.524c-.246-.039-.457-.117-.527-.391,13.4,0,26.829,0,40.226-.039,1.055,0,1.266.234,1.266,1.406q-.053,48.574,0,97.188c0,1.172-.211,1.406-1.266,1.406C72.006,101.055,59.981,101.055,47.99,101.055Z" transform="translate(14.196 0)" fill="none"/><path d="M41.414,1.125c-1.477.508-2.989.977-4.43,1.563C28.72,6.008,22.918,15.267,22.707,24.994a236.143,236.143,0,0,1-2.883,28.634,86.571,86.571,0,0,0-1.266,14.141,12.743,12.743,0,0,0,.668,4.375c.563,1.367.281,1.992-.879,2.734-5.2,3.281-7.349,8.4-7.314,14.922a5.146,5.146,0,0,0,2.707,4.8,38.619,38.619,0,0,0,10.935,4.1,87.255,87.255,0,0,0,11.779,1.953c.387.039.844-.156,1.09.391-11.885,0-23.735,0-35.619.039-.949,0-1.3-.078-1.3-1.328q.053-48.693,0-97.309c0-1.289.387-1.328,1.3-1.328Z" transform="translate(0 0.004)" fill="none"/><path d="M52.7,17.632c1.09.985,1.16,2.426,1.547,3.657.7,2.286,1.266,4.606,2,6.892a7.094,7.094,0,0,0,1.723,2.813c.6.633,1.16,1.16,1.934.07.668-.949,1.2-.387,1.442.422.7,2.11-1.758,7.947-3.833,8.931A2.076,2.076,0,0,0,56.116,42a17.066,17.066,0,0,1-4.5,8.58,2.855,2.855,0,0,0-.879,2.356c.176,2.215-.387,4.43.457,6.611.211.563-.141,1.02-.387,1.477-2.321,4.4-4.677,8.791-6.927,13.186-.563,1.09-.844,1.125-1.512.07a153.1,153.1,0,0,1-7.665-13.4c-.246-.457-.6-.914-.387-1.477.774-2.215.211-4.536.422-6.786a2.541,2.541,0,0,0-.879-2,17.3,17.3,0,0,1-4.571-8.755,1.63,1.63,0,0,0-.985-1.3C26.192,39.5,23.7,34.65,24.012,32.4c.07-.387.141-.7.633-.563,3.516.949,6.857-.176,10.2-.879A30.087,30.087,0,0,0,48.274,24.8,12.454,12.454,0,0,0,52.7,17.632Z" transform="translate(7.328 7.76)" fill="none"/><path d="M29.479,71.411c2.883-2.25,5.7-4.325,8.439-6.54.985-.774,1.477-.7,2.11.387a61.83,61.83,0,0,0,4.29,6.821,10.833,10.833,0,0,1,2.039,7.876c-.07.738-.105,1.2-1.02,1.2-9.951.07-19.761-.809-29.15-4.29-4.114-1.512-4.255-1.9-3.587-6.224.668-4.36,3.411-7.032,7.208-8.826,3.024-1.442,6.329-2.039,9.494-3.059,1.266-.422.879.563.844,1.09-.246,3.34-.527,6.646-.774,9.951A1.9,1.9,0,0,0,29.479,71.411ZM43.9,78.971a.742.742,0,0,0,.633-.879.692.692,0,0,0-.879-.6.644.644,0,0,0-.563.738A.675.675,0,0,0,43.9,78.971Z" transform="translate(1.456 17.165)" fill="none"/><path d="M55.643,71.473c-.316-4.114-.563-7.841-.949-11.568-.141-1.266.176-1.371,1.3-.985,2.918,1.02,5.978,1.582,8.826,2.883,4.606,2.11,7.243,5.52,7.63,10.689a3.234,3.234,0,0,1-2.145,3.692,55.591,55.591,0,0,1-13.819,3.8,98.7,98.7,0,0,1-11.182,1.125c-1.055.035-1.477-.246-1.442-1.371.141-2.707.246-5.38-1.793-7.6-.422-.457-.105-.985.141-1.477.985-1.864,2-3.692,2.918-5.591.492-1.02.949-.914,1.688-.281,2.532,2,5.1,3.938,7.63,5.907A10.3,10.3,0,0,0,55.643,71.473Z" transform="translate(13.963 17.174)" fill="none"/><path d="M28.574,69.285c.316-3.8.527-7.1.914-10.373.176-1.653,2.075-1.653,3.059-2.6.246-.246.492.352.668.633.949,1.758,1.828,3.516,2.813,5.239.457.809.211,1.266-.457,1.758C33.321,65.593,31.176,67.28,28.574,69.285Z" transform="translate(6.855 14.927)" fill="none"/><path d="M53.721,69.266c-2.672-2.039-4.993-3.868-7.349-5.661a.82.82,0,0,1-.211-1.2c.985-1.828,1.969-3.692,2.954-5.556.316-.633.563-.492,1.16-.246,2.145.949,2.848,2.5,2.813,4.817C53.053,63.886,53.475,66.348,53.721,69.266Z" transform="translate(11.131 14.95)" fill="none"/><path d="M40.485,76.88a.764.764,0,0,1-.844-.7.644.644,0,0,1,.563-.738.68.68,0,0,1,.879.6C41.188,76.528,40.907,76.775,40.485,76.88Z" transform="translate(9.238 19.256)" fill="#4ab1d5"/></g></g></svg>