<svg xmlns="http://www.w3.org/2000/svg" xmlns:xlink="http://www.w3.org/1999/xlink" width="80" height="100" viewBox="0 0 80 100"><defs><clipPath id="a"><rect width="80" height="100" transform="translate(272 5572)" fill="#fff" stroke="#707070" stroke-width="1"/></clipPath></defs><g transform="translate(-272 -5572)" clip-path="url(#a)"><g transform="translate(262 5567.703)"><path d="M36.328,4.336q31.055,0,62.07-.039c1.328,0,1.6.273,1.6,1.6q-.059,48.4,0,96.8c0,1.328-.273,1.6-1.6,1.6-12.617-.078-25.234-.039-37.852-.039.2-.469.625-.352,1.016-.391a90.22,90.22,0,0,0,12.539-1.6A35.622,35.622,0,0,0,85.469,98.4c1.836-1.094,3.516-2.344,3.516-4.766-.039-6.094-2.227-11.133-7.422-14.609a35.847,35.847,0,0,0-6.6-3.281c-2.852-1.133-5.781-1.953-8.437-3.516C62.773,70,61.484,63.516,64.1,60a26.79,26.79,0,0,0,3.359-6.133,5.364,5.364,0,0,1,2.188-2.812c3.906-2.461,6.875-10.117,3.633-14.062a2.116,2.116,0,0,1-.2-1.875c.313-1.8.742-3.555.938-5.352.508-5.273.273-10.391-3.047-14.883C69.883,13.4,59.492,6.133,57.734,5.625a13.781,13.781,0,0,0-2.461-.508,36.5,36.5,0,0,0-9.883.586A12.813,12.813,0,0,1,36.328,4.336Z" fill="none"/><path d="M39.063,104.258q-18.809,0-37.617.039C.391,104.3,0,104.219,0,102.93Q.059,54.3,0,5.664C0,4.375.391,4.3,1.445,4.3q16.465.059,32.93.039c0,.469-.43.625-.7.859a17.866,17.866,0,0,0-6.016,9.1,37.092,37.092,0,0,0-.937,16.563c.313,1.836,1.211,3.867.273,5.664-2.383,4.609-2.109,9.648,1.68,12.93a21.447,21.447,0,0,1,5.352,7.617,10.968,10.968,0,0,0,1.328,2.148c3.711,5.313,2.07,11.328-3.789,13.945-3.711,1.68-7.7,2.734-11.289,4.727-5.039,2.773-8.242,6.8-9.023,12.617-.625,4.8.117,6.367,4.453,8.516,4.727,2.344,9.844,3.2,14.961,4.062C33.516,103.555,36.367,103.359,39.063,104.258Z" fill="none"/><path d="M39.063,104.258c-2.7-.9-5.586-.7-8.359-1.172-5.117-.859-10.234-1.719-14.961-4.062-4.336-2.148-5.117-3.711-4.453-8.516.781-5.82,3.984-9.844,9.023-12.617,3.594-1.992,7.578-3.047,11.289-4.727,5.859-2.617,7.5-8.672,3.789-13.945a17.711,17.711,0,0,1-1.328-2.148,21.447,21.447,0,0,0-5.352-7.617c-3.789-3.281-4.062-8.359-1.68-12.93.938-1.836.039-3.828-.273-5.664A36.537,36.537,0,0,1,27.7,14.3a17.242,17.242,0,0,1,6.016-9.1c.273-.234.7-.391.7-.859h1.953a12.89,12.89,0,0,0,8.984,1.406,36.5,36.5,0,0,1,9.883-.586,10.6,10.6,0,0,1,2.461.508c1.758.508,12.148,7.773,13.242,9.258,3.32,4.492,3.594,9.609,3.047,14.883-.2,1.8-.625,3.594-.937,5.352a2.129,2.129,0,0,0,.2,1.875c3.242,3.945.273,11.6-3.633,14.063a5.364,5.364,0,0,0-2.188,2.812,26.79,26.79,0,0,1-3.359,6.133c-2.617,3.516-1.328,10,2.422,12.227a54.939,54.939,0,0,0,8.438,3.516,33.558,33.558,0,0,1,6.6,3.281c5.2,3.477,7.422,8.516,7.422,14.609,0,2.422-1.68,3.672-3.516,4.766A35.622,35.622,0,0,1,74.063,102.3a90.22,90.22,0,0,1-12.539,1.6c-.352.039-.781-.078-1.016.391C53.4,104.258,46.211,104.258,39.063,104.258Zm30.156-64.57c-.2-.859-.352-1.562-.547-2.227-.9-3.4-1.758-6.8-3.789-9.766a15.82,15.82,0,0,1-2.891-6.758c-.156-1.094-.508-1.445-1.8-1.211a89.836,89.836,0,0,1-19.922,2.031c-1.367-.039-3.008-.742-3.984-.2-1.172.664-.742,2.617-.977,3.984-.82,4.688-4.063,8.828-2.93,13.906a.7.7,0,0,1-.352.625c-.352.156-.547-.234-.781-.43-.469-.43-.586-1.445-1.289-1.25-.859.234-1.016,1.25-1.25,2.07-.664,2.539,1.406,6.953,4.1,8.2a4.2,4.2,0,0,1,2.3,2.656,25.292,25.292,0,0,0,3.008,6.094c3.086,4.492,2.891,9.258.859,14.023a1.946,1.946,0,0,0,.391,2.539,13.581,13.581,0,0,0,6.641,3.906A14.709,14.709,0,0,0,60.742,74.1c.508-.469,1.367-1.016.7-1.953-2.344-3.32-1.836-7.031-1.367-10.742a4.3,4.3,0,0,1,.859-2.734,22.19,22.19,0,0,0,4.1-7.7,3.562,3.562,0,0,1,1.953-2.227c3.086-1.523,5.117-6.094,4.141-8.867C70.664,38.75,70.2,38.242,69.219,39.688ZM14.375,92.5c-.391,1.406.43,2.266,1.68,2.969a28.323,28.323,0,0,0,9.336,3.281,135.059,135.059,0,0,0,48.2.234A29.715,29.715,0,0,0,84.063,95.43a2.907,2.907,0,0,0,1.6-3.008c-.273-5.469-2.93-9.258-7.7-11.8-4.141-2.187-8.789-3.242-12.891-5.469-.625-.352-.937-.078-1.289.352-7.109,8.477-20.7,8.047-27.3.117-.391-.469-.664-.937-1.445-.508-4.141,2.344-8.867,3.32-13.047,5.586C17.3,83.242,14.609,86.992,14.375,92.5Z" fill="#3dacd2"/><path d="M69.219,39.688c.977-1.445,1.445-.977,1.875.234.977,2.773-1.055,7.344-4.141,8.867A3.562,3.562,0,0,0,65,51.016a23.235,23.235,0,0,1-4.1,7.7,5.021,5.021,0,0,0-.859,2.734c-.469,3.672-.977,7.383,1.367,10.742.664.938-.2,1.484-.7,1.953A14.73,14.73,0,0,1,45.977,77.93a13.757,13.757,0,0,1-6.641-3.906,1.991,1.991,0,0,1-.391-2.539c2.07-4.766,2.227-9.531-.859-14.023a25.292,25.292,0,0,1-3.008-6.094,4.091,4.091,0,0,0-2.3-2.656c-2.7-1.289-4.766-5.664-4.1-8.2.2-.82.391-1.836,1.25-2.07.7-.2.82.859,1.289,1.25.234.2.391.586.781.43a.8.8,0,0,0,.352-.625c-1.133-5.078,2.109-9.219,2.93-13.906.234-1.367-.2-3.32.977-3.984.977-.547,2.617.156,3.984.2a92.223,92.223,0,0,0,19.922-2.031c1.289-.234,1.6.117,1.8,1.211a16.028,16.028,0,0,0,2.891,6.758C66.875,30.7,67.7,34.1,68.633,37.5A17.308,17.308,0,0,1,69.219,39.688Z" fill="none"/><path d="M14.375,92.5c.234-5.547,2.93-9.3,7.578-11.8,4.18-2.266,8.906-3.242,13.047-5.586.742-.43,1.055.039,1.445.508,6.641,7.93,20.2,8.359,27.3-.117.391-.43.664-.7,1.289-.352,4.1,2.227,8.75,3.281,12.891,5.469,4.727,2.5,7.422,6.328,7.7,11.8a2.963,2.963,0,0,1-1.6,3.008,29.453,29.453,0,0,1-10.469,3.555,134.167,134.167,0,0,1-48.2-.234,28.959,28.959,0,0,1-9.336-3.281C14.8,94.766,13.984,93.906,14.375,92.5Z" fill="none"/></g></g></svg>